<svg width="36" height="36" viewBox="0 0 36 36" fill="none" xmlns="http://www.w3.org/2000/svg">
<rect width="36" height="36" rx="18" fill="#3E3B31"/>
<path d="M14.1501 29.3999C16.1649 29.3999 17.8001 27.7647 17.8001 25.7499V22.0999H14.1501C12.1352 22.0999 10.5 23.7351 10.5 25.7499C10.5 27.7647 12.1352 29.3999 14.1501 29.3999Z" fill="white"/>
<path d="M10.5 18.4501C10.5 16.4353 12.1352 14.8 14.1501 14.8H17.8001V22.1H14.1501C12.1352 22.1001 10.5 20.4649 10.5 18.4501Z" fill="white"/>
<path d="M10.5 11.15C10.5 9.13523 12.1352 7.5 14.1501 7.5H17.8001V14.8H14.1501C12.1352 14.8 10.5 13.1648 10.5 11.15Z" fill="white"/>
<path d="M17.7999 7.5H21.45C23.4648 7.5 25.1 9.13523 25.1 11.15C25.1 13.1648 23.4648 14.8 21.45 14.8H17.7999V7.5Z" fill="white"/>
<path d="M25.1 18.4501C25.1 20.4649 23.4648 22.1001 21.45 22.1001C19.4352 22.1001 17.7999 20.4649 17.7999 18.4501C17.7999 16.4353 19.4352 14.8 21.45 14.8C23.4648 14.8 25.1 16.4353 25.1 18.4501Z" fill="white"/>
</svg>
