<svg width="36" height="36" viewBox="0 0 36 36" fill="none" xmlns="http://www.w3.org/2000/svg">
<rect width="36" height="36" rx="18" fill="#3E3B31"/>
<path fill-rule="evenodd" clip-rule="evenodd" d="M17.5423 6C14.8012 6.00142 12.15 6.97226 10.0627 8.73891C7.97548 10.5056 6.58827 12.9528 6.14917 15.6431C5.71006 18.3334 6.24768 21.0913 7.6659 23.4236C9.08412 25.7559 11.2905 27.5106 13.8904 28.3739C14.464 28.4804 14.68 28.1249 14.68 27.8226C14.68 27.5203 14.6686 26.6439 14.6647 25.6858C11.4526 26.3797 10.7739 24.3303 10.7739 24.3303C10.25 22.9995 9.49289 22.6497 9.49289 22.6497C8.44513 21.9387 9.57128 21.952 9.57128 21.952C10.7318 22.0338 11.3418 23.1364 11.3418 23.1364C12.3704 24.8911 14.0434 24.3835 14.7011 24.087C14.8043 23.3436 15.1045 22.8379 15.4353 22.5509C12.8694 22.2619 10.1735 21.2772 10.1735 16.878C10.1576 15.7371 10.5834 14.6338 11.3628 13.7964C11.2443 13.5074 10.8485 12.3401 11.4756 10.7546C11.4756 10.7546 12.445 10.4466 14.6514 11.9314C16.5439 11.4168 18.5406 11.4168 20.4332 11.9314C22.6376 10.4466 23.6051 10.7546 23.6051 10.7546C24.2341 12.3363 23.8384 13.5036 23.7198 13.7964C24.5017 14.634 24.9283 15.7392 24.911 16.8818C24.911 21.2905 22.2094 22.2619 19.6397 22.5452C20.0527 22.9026 20.4217 23.6003 20.4217 24.6725C20.4217 26.2086 20.4083 27.4443 20.4083 27.8226C20.4083 28.1287 20.6167 28.4861 21.2018 28.3739C23.802 27.5105 26.0086 25.7555 27.4268 23.4228C28.845 21.0901 29.3823 18.3318 28.9427 15.6413C28.5031 12.9507 27.1152 10.5034 25.0272 8.73707C22.9393 6.97072 20.2875 6.00052 17.5461 6H17.5423Z" fill="white"/>
<path d="M10.3683 22.4843C10.3434 22.5414 10.2517 22.5585 10.1771 22.5185C10.1025 22.4786 10.0471 22.4045 10.0739 22.3455C10.1006 22.2866 10.1905 22.2714 10.2651 22.3113C10.3396 22.3512 10.397 22.4273 10.3683 22.4843Z" fill="white"/>
<path d="M10.8367 23.0033C10.7971 23.0232 10.7518 23.0287 10.7085 23.019C10.6653 23.0093 10.6268 22.9849 10.5996 22.9501C10.525 22.8703 10.5097 22.76 10.5671 22.7106C10.6244 22.6612 10.7277 22.684 10.8022 22.7638C10.8768 22.8437 10.894 22.9539 10.8367 23.0033Z" fill="white"/>
<path d="M11.2919 23.6629C11.2211 23.7124 11.1007 23.6629 11.0337 23.5641C11.0152 23.5464 11.0005 23.5251 10.9905 23.5016C10.9804 23.4781 10.9752 23.4528 10.9752 23.4272C10.9752 23.4017 10.9804 23.3764 10.9905 23.3529C11.0005 23.3293 11.0152 23.3081 11.0337 23.2903C11.1045 23.2428 11.2249 23.2903 11.2919 23.3873C11.3588 23.4842 11.3607 23.6135 11.2919 23.6629V23.6629Z" fill="white"/>
<path d="M11.9094 24.3018C11.8463 24.3722 11.7182 24.3531 11.6131 24.2581C11.5079 24.163 11.4831 24.0338 11.5461 23.9653C11.6092 23.8969 11.7373 23.9159 11.8463 24.009C11.9553 24.1022 11.9763 24.2334 11.9094 24.3018V24.3018Z" fill="white"/>
<path d="M12.7754 24.6744C12.7468 24.7637 12.6167 24.8036 12.4867 24.7656C12.3567 24.7276 12.2707 24.6211 12.2955 24.5299C12.3204 24.4386 12.4523 24.3968 12.5842 24.4386C12.7162 24.4805 12.8003 24.5812 12.7754 24.6744Z" fill="white"/>
<path d="M13.72 24.7391C13.72 24.8323 13.613 24.9121 13.4753 24.914C13.3377 24.9159 13.2249 24.8399 13.2249 24.7467C13.2249 24.6536 13.3319 24.5737 13.4696 24.5718C13.6072 24.5699 13.72 24.6441 13.72 24.7391Z" fill="white"/>
<path d="M14.5995 24.5927C14.6167 24.6858 14.5211 24.7828 14.3835 24.8056C14.2458 24.8284 14.1253 24.7733 14.1081 24.682C14.0909 24.5908 14.1904 24.4919 14.3242 24.4672C14.458 24.4425 14.5823 24.4995 14.5995 24.5927Z" fill="white"/>
</svg>
