<svg width="37" height="36" viewBox="0 0 37 36" fill="none" xmlns="http://www.w3.org/2000/svg">
<rect width="37" height="36" rx="18" fill="#3E3B31"/>
<g clip-path="url(#clip0_82_228)">
<path d="M7.70837 10.3015C7.70837 9.62585 7.95144 9.06842 8.43754 8.62924C8.92364 8.19005 9.5556 7.97046 10.3334 7.97046C11.0973 7.97046 11.7153 8.18666 12.1875 8.61911C12.6736 9.06505 12.9167 9.64612 12.9167 10.3624C12.9167 11.011 12.6806 11.5515 12.2084 11.984C11.7223 12.4299 11.0834 12.6529 10.2917 12.6529H10.2709C9.50698 12.6529 8.88894 12.4299 8.41671 11.984C7.94448 11.538 7.70837 10.9772 7.70837 10.3015ZM7.97921 28.038V14.4975H12.6042V28.038H7.97921ZM15.1667 28.038H19.7917V20.4772C19.7917 20.0042 19.8473 19.6394 19.9584 19.3826C20.1528 18.9232 20.448 18.5346 20.8438 18.2171C21.2396 17.8995 21.7361 17.7407 22.3334 17.7407C23.8889 17.7407 24.6667 18.761 24.6667 20.8015V28.038H29.2917V20.2745C29.2917 18.2745 28.8056 16.7576 27.8334 15.7238C26.8611 14.6901 25.5764 14.1732 23.9792 14.1732C22.1875 14.1732 20.7917 14.9232 19.7917 16.4232V16.4637H19.7709L19.7917 16.4232V14.4975H15.1667C15.1945 14.9299 15.2084 16.2745 15.2084 18.5313C15.2084 20.788 15.1945 23.9569 15.1667 28.038Z" fill="#E9E3D5"/>
</g>
<defs>
<clipPath id="clip0_82_228">
<rect x="7.70837" y="7.5" width="21.5833" height="21" fill="white"/>
</clipPath>
</defs>
</svg>
