<svg width="36" height="36" viewBox="0 0 36 36" fill="none" xmlns="http://www.w3.org/2000/svg">
<g clip-path="url(#clip0_118_176)">
<path d="M35.9881 0V35.9881H0V0H35.9881Z" fill="#3E3B31"/>
<path fill-rule="evenodd" clip-rule="evenodd" d="M28.0705 28.3064H22.1361L21.7358 27.7245L16.575 20.2259L15.8115 19.1181L9.38853 9.78727L7.94141 7.68359H13.8758L14.2762 8.2638L19.1079 15.2823L19.8713 16.3918L26.6234 26.2027L28.0705 28.3064ZM25.5156 26.9628L18.9653 17.4453L18.2019 16.3358L13.1701 9.02554H10.4947L16.7158 18.0646L17.4792 19.1741L22.8402 26.9628H25.5156Z" fill="white"/>
<path d="M16.7157 18.0645L17.4791 19.174L16.5749 20.2258L9.62938 28.3063H7.9176L15.8115 19.118L16.7157 18.0645Z" fill="white"/>
<path d="M27.3563 7.68359L19.8713 16.3918L18.9653 17.4436L18.2019 16.3358L19.1078 15.2823L24.1787 9.38011L25.6445 7.68359H27.3563Z" fill="white"/>
</g>
<defs>
<clipPath id="clip0_118_176">
<rect width="36" height="36" rx="18" fill="white"/>
</clipPath>
</defs>
</svg>
